<?xml version="1.0" encoding="utf-8"?>
<svg width="24" height="24" viewBox="11.845 87.3114 217.998 61.8006" xmlns="http://www.w3.org/2000/svg" xmlns:bx="https://boxy-svg.com">
  <g fill="white">
    <ellipse cx="209.843" cy="129.112" rx="20" ry="20"/>
    <path d="M 20.445 130 H 110.877 V 145 H 20.445 A 8.6 7.5 0 0 1 11.845 137.5 V 137.5 A 8.6 7.5 0 0 1 20.445 130 Z" bx:shape="rect 11.845 130 99.032 15 8.6 0 0 8.6 1@76dcc972"/>
    <path style="transform-box: fill-box; transform-origin: 50% 50%;" transform="matrix(0.707126, -0.707088, 0.707088, 0.707126, 21.422212, -23.594919)" d="M 7.411 129.566 H 58.703 A 8.6 8.587 0 0 1 67.303 138.153 V 146.739 H 7.411 V 129.566 Z" bx:shape="rect 7.411 129.566 59.892 17.173 0 8.6 0 0 1@1da07a21"/>
    <path style="transform-origin: 37.81px 138.152px;" transform="matrix(0.707088, 0.707126, -0.707126, 0.707088, 53.484851, -21.556203)" d="M 16.101 129.566 H 68.119 V 146.739 H 7.501 V 138.153 A 8.6 8.587 0 0 1 16.101 129.566 Z" bx:shape="rect 7.501 129.566 60.618 17.173 8.6 0 0 0 1@e88e42db"/>
    <path d="M 115 115 H 170 A 10 10 0 0 1 180 125 V 135 A 10 10 0 0 1 170 145 H 110 V 120 A 5 5 0 0 1 115 115 Z" bx:shape="rect 110 115 70 30 5 10 10 0 1@cb518a4b"/>
    <path d="M 115 125 H 190 A 10 5 0 0 1 200 130 V 130 A 10 5 0 0 1 190 135 H 110 V 130 A 5 5 0 0 1 115 125 Z" bx:shape="rect 110 125 90 10 5 10 10 0 1@24ffbf9a"/>
  </g>
</svg>