<?xml version="1.0" encoding="utf-8"?>
<!-- https://upload.wikimedia.org/wikipedia/commons/e/eb/Panama_P-24.svg -->
<!-- Generator: Adobe Illustrator 15.0.2, SVG Export Plug-In . SVG Version: 6.00 Build 0)  -->
<!-- <!DOCTYPE svg PUBLIC "-//W3C//DTD SVG 1.1//EN" "http://www.w3.org/Graphics/SVG/1.1/DTD/svg11.dtd"> -->
<svg filter="invert(1)" version="1.1" xmlns="http://www.w3.org/2000/svg" xmlns:xlink="http://www.w3.org/1999/xlink" x="0px"
	y="0px" viewBox="0 0 48.633 48.633" xml:space="preserve">
	<g id="HATCH" fill="white">
		<path d="M48.197,22.403L26.199,0.436c-0.916-0.917-2.404-0.917-3.322,0L0.938,22.403
		c-0.914,0.917-0.914,2.406,0,3.322l21.94,21.972c0.918,0.913,2.406,0.913,3.322,0l21.998-21.972
		C49.113,24.811,49.113,23.32,48.197,22.403L48.197,22.403z" />
	</g>
	<g id="HATCH_1_">
		<path d="M25.548,1.088h-2.463L1.089,23.084v2.463l21.996,21.996h2.463l21.997-21.996v-2.463L25.548,1.088z M47.145,23.486v1.661
		L25.146,47.114h-1.664L1.49,25.146v-1.662L23.485,1.518h1.662L47.145,23.486z" />
	</g>
	<g id="LWPOLYLINE_1_">

		<path fill="none" stroke="#000000" stroke-width="1.17" stroke-linecap="round" stroke-linejoin="round"
			stroke-miterlimit="10" d="
		M47.121,23.487L25.139,1.503c-0.458-0.458-1.201-0.458-1.659,0L1.496,23.487c-0.459,0.458-0.459,1.201,0,1.66l21.983,21.982
		c0.458,0.457,1.201,0.457,1.66,0L47.12,25.146C47.58,24.688,47.58,23.945,47.121,23.487z" />
	</g>
	<path d="M20.157,17.282" />
	<g fill="black">
		<g>
			<path d="M24.577,10.674c1.04,0,1.891,0.85,1.891,1.891c0,1.042-0.851,1.892-1.891,1.892c-1.042,0-1.893-0.85-1.893-1.892
			C22.685,11.523,23.536,10.674,24.577,10.674" />
			<g>
				<g>
					<path d="M18.16,26.757l7.786-4.233l-0.916-7.111c0.95-0.179,1.749-0.659,2.287-1.677c2.466,0.366,5.54,0.721,5.54,0.721
					l1.572,4.318l-1.484,0.892l4.894,12.089h-0.671h-0.945l-3.575-7.37l-1.634,2.305v5.064h-1.532l-0.393-5.229l0.862-2.523
					l-0.831-2.305l-10.489,5.723L18.16,26.757z" />
					<polygon fill="none" points="28.778,20.948 26.857,22.086 26.857,17.347 				" />
				</g>
				<polygon fill="none" points="33.434,18.396 32.477,18.922 30.497,15.772 32.229,15.936 			" />
			</g>
		</g>
		<polyline fill-rule="evenodd" clip-rule="evenodd" points="25.825,31.756 24.337,27.617 22.017,26.977 19.853,21.918 
		18.747,21.758 17.353,22.746 14.659,27.657 12.54,29.259 10.778,31.756 25.825,31.756 	" />
	</g>
</svg>