<?xml version="1.0" encoding="utf-8"?>
<svg width="24" height="24" filter="invert(1)" viewBox="66.0856 15 107.568 210" xmlns="http://www.w3.org/2000/svg" xmlns:bx="https://boxy-svg.com">
  <g style="">
    <title>sitting-down</title>
    <ellipse style="" cx="87.5" cy="32.5" rx="17.5" ry="17.5"/>
    <path style="" d="M 88.626 140 H 161.73 A 10 10 0 0 1 171.73 150 V 161.14 H 98.626 A 10 10 0 0 1 88.626 151.14 V 140 Z" bx:shape="rect 88.626 140 83.104 21.14 0 10 0 10 1@ded0ab0e"/>
    <rect style="transform-box: fill-box; transform-origin: 50% 50%;" transform="matrix(0, 1, -1, 0, 29.813615, -25.567017)" x="89.73" y="196.457" width="85" height="23.22" rx="10" ry="10"/>
    <path style="" d="M 88 31.722 H 88 A 5 8.7 0 0 1 93 40.422 V 163.389 H 88 A 5 10 0 0 1 83 153.389 V 41.722 A 5 10 0 0 1 88 31.722 Z" bx:shape="rect 83 31.722 10 131.667 10 8.7 0 10 1@a69a8bd4"/>
    <path style="transform-box: fill-box; transform-origin: 50% 50%;" d="M 108.628 58.182 H 128.065 A 10 10 0 0 1 138.065 68.182 V 161.182 H 108.628 A 10 10 0 0 1 98.628 151.182 V 68.182 A 10 10 0 0 1 108.628 58.182 Z" transform="matrix(0.984808, -0.173648, 0.173648, 0.984808, -23.899047, 4.213978)" bx:shape="rect 98.628 58.182 39.437 103 10 10 0 10 1@bb447064"/>
  </g>
</svg>