<?xml version="1.0" encoding="utf-8"?>
<svg viewBox="0 0 300 60" xmlns="http://www.w3.org/2000/svg">
  <g style="">
    <title>original</title>
    <path d="M 298 16 L 298 44 L 278.267 58 L 21.733 58 L 2 44 L 2 16 L 21.733 2 L 278.267 2 L 298 16 Z" style="stroke-linecap: round; stroke-linejoin: round; fill: rgb(87, 87, 87); stroke-width: 4px; stroke: rgb(255, 255, 255);"/>
    <path d="M 6 42 L 6 18 L 21.998 6 L 278.002 6 L 294 18 L 294 42 L 278.002 54 L 21.998 54 Z" style="stroke-width: 3px; fill: rgb(68, 68, 68); stroke: rgb(34, 34, 34);"/>
    <path d="M 15 38.034 L 15 21.966 L 25.027 14 L 274.973 14 L 285 21.966 L 285 38.034 L 274.973 46 L 25.027 46 Z" style="fill: none; stroke: rgb(170, 170, 170); stroke-linecap: round; stroke-linejoin: round; stroke-opacity: 0.22; stroke-width: 4px;"/>
  </g>
  <g style="visibility: hidden;">
    <title>obstacles</title>
    <path d="M 300 15 L 300 45 L 280 60 L 20 60 L 0 45 L 0 15 L 20 0 L 280 0 L 300 15 Z" style="stroke: rgb(0, 0, 0); stroke-linecap: round; stroke-linejoin: round; fill: rgb(0, 0, 255); fill-opacity: 0.2;"/>
  </g>
</svg>