<?xml version="1.0" encoding="utf-8"?>
<svg width="24" height="24" viewBox="0 0 15 13" xmlns="http://www.w3.org/2000/svg">
  <g>
    <title>original</title>
    <path d="M 8.317 3.073 L 10.233 5.01 L 2.002 5.01 C 0.847 5.01 0.126 6.252 0.703 7.246 C 0.971 7.708 1.466 7.992 2.002 7.992 L 10.233 7.992 L 8.317 9.929 C 7.481 10.721 7.82 12.115 8.928 12.439 C 9.477 12.6 10.07 12.436 10.457 12.017 L 13.502 8.936 C 14.823 7.578 14.823 5.423 13.502 4.066 L 10.454 0.984 C 9.674 0.138 8.265 0.449 7.918 1.544 C 7.746 2.086 7.899 2.679 8.314 3.072 L 8.317 3.073 Z" style="fill: rgb(255, 255, 255);"/>
  </g>
</svg>