<?xml version="1.0" encoding="utf-8"?>
<svg viewBox="0 0 1000 1000" xmlns="http://www.w3.org/2000/svg">
  <path d="M 129.6 775.4 L 876.4 775.4 L 992.1 896.9 L 992.1 927.25 L 7.800000000000068 927.25 L 7.800000000000068 897.1 L 129.50000000000006 775.4 M 188.38000000000005 72.69999999999993 L 812.48 72.69999999999993 C 841.66 72.80999999999993 862.08 95.66999999999993 862.08 123.34999999999994 L 862.08 597.3499999999999 C 862.08 640.8299999999999 839.4200000000001 661.78 796.4100000000001 661.78 L 615.71 661.78 C 618.57 674.29 622.35 687.0699999999999 630.6 697.1899999999999 C 636.39 704.4 645.02 709.43 654.32 710.17 C 658.2600000000001 710.49 662.6500000000001 710.2199999999999 665.98 712.8299999999999 C 671.44 717.0999999999999 671.35 726.5899999999999 665.6700000000001 730.5999999999999 C 663.2700000000001 732.3 660.2800000000001 732.8299999999999 657.4200000000001 732.8299999999999 L 343.4200000000001 732.8299999999999 C 339.4700000000001 732.8299999999999 335.36000000000007 732.79 331.68000000000006 731.1899999999999 C 329.52000000000004 730.2499999999999 327.68000000000006 727.8699999999999 328.2200000000001 725.41 C 329.36000000000007 720.25 333.5400000000001 716.5699999999999 337.49000000000007 713.43 C 342.64000000000004 709.3499999999999 349.31000000000006 708.1999999999999 354.8500000000001 704.8199999999999 C 370.2000000000001 696.1099999999999 379.8400000000001 679.1299999999999 381.44000000000005 661.78 L 189.44000000000005 661.78 C 162.84000000000006 661.78 137.72000000000006 637.06 137.72000000000006 607.39 L 137.72000000000006 124.28999999999996 C 137.72000000000006 96.79999999999997 160.82000000000005 72.67999999999996 188.38000000000005 72.67999999999996 L 188.38000000000005 72.69999999999993 Z" style="fill: rgb(255, 255, 255);"/>
  <path d="M 876 841.1 C 870.79 842.24 865.29 844.3100000000001 862 848.78 C 860.3 851.0799999999999 860.46 854.41 862.29 856.6 C 864.8 859.6 868.38 861.52 872.03 862.69 C 882.01 865.87 893.16 865.6700000000001 902.92 861.7700000000001 C 907 860.1400000000001 912.01 857.2100000000002 911.9 852.3500000000001 C 911.79 847.5800000000002 906.93 844.6600000000001 902.88 843.0300000000001 C 894.42 839.6100000000001 884.87 839.1500000000001 876 841.1000000000001 L 876 841.1 Z M 810.99 841.09 C 806.19 842.2 801.27 843.99 797.75 847.58 C 795.59 849.7900000000001 794.93 853.51 796.83 856.1 C 799.51 859.76 803.8100000000001 861.8100000000001 808.07 863.02 C 817.59 865.71 828.0300000000001 865.55 837.3000000000001 862.01 C 841.58 860.37 846.82 857.4 846.83 852.35 C 846.84 847.88 842.35 845.01 838.57 843.38 C 829.95 839.67 820.13 839.17 810.99 841.09 M 741.94 840.97 C 736.46 842.14 730.5400000000001 844.1700000000001 727.1400000000001 848.94 C 725.0200000000001 851.9100000000001 726.3100000000001 855.84 728.9000000000001 858.0400000000001 C 734.6000000000001 862.9000000000001 742.32 864.47 749.58 864.8100000000001 C 757.0300000000001 865.1500000000001 764.82 863.9200000000001 771.38 860.1700000000001 C 774.45 858.4100000000001 777.83 855.2500000000001 777.03 851.3900000000001 C 776.1899999999999 847.3400000000001 772.27 844.82 768.6999999999999 843.2800000000001 C 760.3299999999999 839.6800000000001 750.8199999999999 839.2400000000001 741.9399999999999 840.9700000000001 M 671.9799999999999 841.0400000000002 C 667.3499999999999 842.0200000000002 662.5999999999999 843.5900000000001 659.0899999999999 846.8900000000002 C 657.1999999999999 848.6700000000002 655.6999999999999 851.4700000000003 656.66 854.1500000000002 C 658.1899999999999 858.4300000000002 662.48 860.8500000000003 666.51 862.2800000000002 C 677.1 866.0300000000002 689.26 865.9200000000002 699.56 861.3100000000002 C 702.9399999999999 859.8000000000002 706.7099999999999 857.2500000000002 707.29 853.2500000000002 C 707.9 848.9700000000003 704.0999999999999 845.9000000000002 700.75 844.1700000000002 C 691.98 839.6600000000002 681.55 839.1100000000002 671.98 841.0400000000002 M 600.98 841.0500000000002 C 595.5600000000001 842.2600000000002 589.62 844.2400000000002 586.35 849.0800000000002 C 584.4 851.9700000000001 585.65 855.7100000000002 588 857.8900000000001 C 591.3 860.9600000000002 595.66 862.6400000000001 600 863.6100000000001 C 609.42 865.7200000000001 619.7 865.3800000000001 628.55 861.3300000000002 C 631.93 859.7800000000002 635.67 857.2400000000001 636.27 853.2400000000001 C 636.9 848.9900000000001 633.09 845.8900000000001 629.76 844.1700000000001 C 620.99 839.6300000000001 610.55 839.1200000000001 600.98 841.0500000000001 M 529.98 841.0400000000001 C 524.54 842.2400000000001 518.62 844.2500000000001 515.3100000000001 849.07 C 513.32 851.98 514.6600000000001 855.6800000000001 517.0000000000001 857.8900000000001 C 520.6100000000001 861.2800000000001 525.4900000000001 862.9100000000001 530.2600000000001 863.8700000000001 C 539.5500000000001 865.7300000000001 549.6600000000001 865.2000000000002 558.2300000000001 860.9900000000001 C 561.5400000000001 859.3700000000001 565.3800000000001 856.5900000000001 565.3400000000001 852.4300000000002 C 565.3000000000002 848.5100000000002 561.8800000000001 845.7800000000002 558.7500000000001 844.1700000000002 C 549.9800000000001 839.6600000000002 539.5500000000001 839.1000000000001 529.9800000000001 841.0400000000002 M 458.98000000000013 841.0400000000002 C 454.34000000000015 842.0200000000002 449.6300000000001 843.6300000000002 446.09000000000015 846.9000000000002 C 443.96000000000015 848.8800000000002 442.51000000000016 852.1100000000002 443.95000000000016 854.9500000000002 C 446.1200000000002 859.2300000000001 450.7400000000002 861.4900000000001 455.10000000000014 862.8200000000002 C 465.53000000000014 866.0100000000002 477.34000000000015 865.7400000000001 487.2400000000001 860.9800000000001 C 490.5600000000001 859.3800000000001 494.3600000000001 856.5900000000001 494.3200000000001 852.4300000000002 C 494.29000000000013 848.5100000000002 490.8800000000001 845.7800000000002 487.7500000000001 844.1700000000002 C 478.98000000000013 839.6500000000002 468.54000000000013 839.1000000000001 458.98000000000013 841.0400000000002 M 388.92000000000013 840.8800000000002 C 384.17000000000013 841.7600000000002 379.3700000000001 843.3000000000002 375.6100000000001 846.4200000000002 C 373.22000000000014 848.4000000000002 371.3600000000001 851.8400000000001 372.9500000000001 854.9400000000002 C 375.1400000000001 859.2100000000002 379.7300000000001 861.5000000000001 384.0800000000001 862.8300000000002 C 394.2800000000001 865.9400000000002 405.7800000000001 865.7900000000002 415.5600000000001 861.3400000000001 C 419.1100000000001 859.7200000000001 423.35000000000014 856.8700000000001 423.3300000000001 852.4300000000002 C 423.3100000000001 848.5100000000002 419.8900000000001 845.7900000000002 416.7500000000001 844.1700000000002 C 408.2700000000001 839.8000000000002 398.2100000000001 839.1600000000002 388.92000000000013 840.8800000000002 M 316.98000000000013 841.0500000000002 C 312.15000000000015 842.0800000000002 307.09000000000015 843.7100000000002 303.6100000000001 847.3900000000002 C 301.97000000000014 849.1200000000002 300.6900000000001 851.7000000000002 301.6200000000001 854.1500000000002 C 303.3600000000001 858.7200000000003 308.0500000000001 861.1500000000002 312.3800000000001 862.5800000000002 C 322.7500000000001 865.9900000000001 334.5600000000001 865.8600000000001 344.5600000000001 861.3400000000001 C 347.9300000000001 859.8200000000002 351.7700000000001 857.2900000000002 352.3000000000001 853.2900000000002 C 352.8700000000001 849.0100000000002 349.1400000000001 845.9000000000002 345.7500000000001 844.1700000000002 C 336.97000000000014 839.7000000000002 326.54000000000013 839.1000000000001 316.98000000000013 841.0500000000002 M 245.98000000000013 841.0400000000002 C 240.58000000000013 842.2900000000002 234.61000000000013 844.2400000000002 231.35000000000014 849.0800000000002 C 229.08000000000013 852.4500000000002 231.18000000000015 856.6400000000001 234.08000000000013 858.8100000000002 C 240.21000000000012 863.3800000000002 248.10000000000014 864.7900000000002 255.55000000000013 864.8600000000001 C 262.6200000000001 864.9200000000001 270.04000000000013 863.7400000000001 276.1200000000001 859.9200000000001 C 278.7100000000001 858.2900000000001 281.4000000000001 855.8100000000001 281.3300000000001 852.4300000000001 C 281.2500000000001 848.5000000000001 277.9000000000001 845.8000000000001 274.7500000000001 844.1700000000001 C 265.9900000000001 839.6400000000001 255.55000000000013 839.1300000000001 245.9800000000001 841.0400000000001 M 175.9200000000001 840.8800000000001 C 170.9500000000001 841.8000000000001 165.8800000000001 843.44 162.0900000000001 846.9100000000001 C 159.9600000000001 848.8700000000001 158.4900000000001 852.1500000000001 159.94000000000008 854.95 C 162.14000000000007 859.19 166.72000000000008 861.51 171.0900000000001 862.83 C 181.5300000000001 865.97 193.3400000000001 865.7900000000001 203.2400000000001 861 C 206.5700000000001 859.39 210.3600000000001 856.6 210.3200000000001 852.43 C 210.2900000000001 848.5 206.8900000000001 845.79 203.7600000000001 844.17 C 195.28000000000011 839.78 185.2000000000001 839.17 175.9200000000001 840.88 M 103.9800000000001 841.05 C 98.3600000000001 842.3399999999999 92.0100000000001 844.42 88.9800000000001 849.78 C 87.3900000000001 852.6 88.91000000000011 855.9 91.0000000000001 857.9 C 94.2500000000001 861.02 98.6600000000001 862.63 103.0100000000001 863.6 C 112.6700000000001 865.77 123.27000000000011 865.38 132.2400000000001 860.99 C 135.5700000000001 859.36 139.3700000000001 856.58 139.3300000000001 852.42 C 139.2900000000001 848.49 135.8900000000001 845.79 132.75000000000009 844.17 C 123.98000000000009 839.64 113.55000000000008 839.14 103.98000000000009 841.05 M 845.9800000000001 801.0699999999999 C 840.0400000000001 801.9699999999999 833.7700000000001 803.77 829.4800000000001 808.2499999999999 C 827.0800000000002 810.7599999999999 826.9000000000001 814.9799999999999 829.3300000000002 817.5599999999998 C 833.6600000000002 822.1699999999998 840.0100000000001 824.0899999999998 846.0700000000002 824.8899999999999 C 855.1000000000001 826.0899999999999 864.8500000000001 825.3199999999998 872.8800000000001 820.6899999999998 C 875.8100000000001 818.9999999999998 878.8100000000001 816.0799999999998 878.44 812.4099999999999 C 878.0600000000001 808.6199999999999 874.6300000000001 806.0899999999998 871.47 804.5299999999999 C 863.64 800.6699999999998 854.5500000000001 799.9699999999999 845.98 801.0699999999998 M 777.96 801.0599999999998 C 772.22 801.9499999999998 766.22 803.6099999999998 761.87 807.6699999999998 C 759.67 809.7199999999998 758.48 813.0999999999998 760.05 815.8899999999999 C 762.52 820.2899999999998 767.56 822.4099999999999 772.17 823.6899999999998 C 781.9499999999999 826.3999999999999 792.86 826.1599999999999 802.2199999999999 822.0299999999999 C 805.6299999999999 820.5299999999999 809.3999999999999 818.0399999999998 810.1999999999999 814.1299999999999 C 811.0099999999999 810.1999999999999 807.7099999999999 806.9799999999999 804.5999999999999 805.2199999999999 C 796.5899999999999 800.6899999999999 786.9499999999999 799.9399999999999 777.9599999999999 801.06 M 707.9799999999999 801.1099999999999 C 702.0699999999999 802.0899999999999 695.8 803.8499999999999 691.5699999999999 808.3899999999999 C 689.4599999999999 810.6499999999999 689.0899999999999 814.4199999999998 691.05 816.9099999999999 C 694.6999999999999 821.5299999999999 700.5899999999999 823.5699999999998 706.17 824.5799999999998 C 714.62 826.1099999999998 723.66 825.6899999999998 731.6899999999999 822.3899999999998 C 735.6999999999999 820.7399999999998 740.51 818.0399999999997 740.81 813.3099999999997 C 741.0799999999999 809.0799999999997 737 806.1099999999997 733.4899999999999 804.4099999999997 C 725.6299999999999 800.6099999999998 716.5399999999998 799.9699999999997 707.9799999999999 801.1099999999998 M 637.0099999999999 801.1099999999998 C 631.0899999999999 802.1199999999998 624.8099999999998 803.8399999999998 620.5699999999998 808.3799999999998 C 618.2899999999998 810.8199999999998 618.1599999999999 814.9299999999997 620.4799999999998 817.4399999999997 C 624.8699999999998 822.1899999999997 631.3799999999998 824.1699999999997 637.5799999999998 824.9399999999997 C 646.6799999999998 826.0699999999997 656.5099999999998 825.1999999999997 664.5399999999998 820.3799999999998 C 667.3499999999998 818.6899999999997 670.1099999999999 815.8199999999998 669.7199999999998 812.3899999999998 C 669.2799999999997 808.5499999999997 665.7499999999998 805.9999999999998 662.4899999999998 804.4099999999997 C 654.6499999999997 800.5799999999997 645.5599999999998 799.9699999999997 637.0099999999998 801.1099999999998 M 565.9999999999998 801.1099999999998 C 560.0899999999998 802.1099999999998 553.8499999999998 803.8699999999998 549.5799999999998 808.3799999999998 C 547.4199999999998 810.6599999999997 547.0899999999998 814.4199999999997 549.0399999999998 816.8999999999997 C 552.8499999999998 821.7699999999998 559.0999999999998 823.7499999999998 564.9399999999998 824.6999999999997 C 573.8299999999998 826.1499999999997 583.4399999999998 825.5699999999997 591.6299999999999 821.4799999999997 C 595.1199999999999 819.7399999999997 599.2899999999998 816.7099999999997 598.7599999999999 812.4099999999996 C 598.2299999999999 808.0499999999996 593.9399999999998 805.3899999999996 590.1699999999998 803.7899999999996 C 582.5999999999998 800.5899999999996 574.0999999999998 799.9899999999997 565.9999999999999 801.1099999999997 M 494.9899999999999 801.1099999999997 C 489.0699999999999 802.0899999999997 482.8499999999999 803.8799999999997 478.57999999999987 808.3799999999997 C 476.2499999999999 810.8399999999997 476.1999999999999 814.9099999999996 478.47999999999985 817.4399999999996 C 482.61999999999983 822.0399999999996 488.83999999999986 823.9699999999996 494.72999999999985 824.8199999999996 C 503.85999999999984 826.1399999999996 513.7199999999998 825.3599999999996 521.9199999999998 820.7499999999995 C 524.9599999999998 819.0399999999995 528.1399999999999 816.1099999999996 527.7199999999998 812.3799999999995 C 527.2899999999998 808.5399999999995 523.7399999999998 805.9999999999995 520.4899999999998 804.4099999999995 C 512.6399999999998 800.5799999999995 503.5499999999998 799.9699999999995 494.9899999999998 801.1099999999996 M 423.9899999999998 801.1099999999996 C 418.07999999999976 802.0899999999996 411.81999999999977 803.8599999999996 407.5899999999998 808.3899999999995 C 405.2899999999998 810.8599999999996 405.1799999999998 814.9199999999995 407.4799999999998 817.4399999999995 C 411.6399999999998 821.9999999999994 417.81999999999977 824.0099999999995 423.7199999999998 824.8299999999995 C 433.0799999999998 826.1399999999994 443.2499999999998 825.3599999999994 451.5399999999998 820.3699999999994 C 454.3399999999998 818.6899999999995 457.12999999999977 815.8199999999995 456.7199999999998 812.3899999999994 C 456.2299999999998 808.2799999999994 452.3399999999998 805.6799999999994 448.8299999999998 804.0899999999995 C 441.1099999999998 800.5899999999995 432.3199999999998 799.9799999999994 423.98999999999984 801.1099999999994 M 353.0099999999998 801.1099999999994 C 347.0899999999998 802.1199999999994 340.79999999999984 803.8299999999995 336.5699999999998 808.3799999999994 C 334.4599999999998 810.6399999999994 334.0899999999998 814.4199999999994 336.03999999999985 816.8999999999994 C 339.84999999999985 821.7699999999994 346.10999999999984 823.7799999999994 351.9399999999998 824.7099999999994 C 361.05999999999983 826.1699999999994 370.9499999999998 825.5599999999994 379.2699999999998 821.1299999999993 C 382.5399999999998 819.3899999999993 386.1699999999998 816.4199999999993 385.7199999999998 812.3899999999993 C 385.2599999999998 808.2899999999993 381.3399999999998 805.6799999999993 377.8399999999998 804.0899999999993 C 370.1299999999998 800.5899999999993 361.3299999999998 799.9699999999993 353.0099999999998 801.1099999999993 M 281.9799999999998 801.1099999999993 C 276.06999999999977 802.0999999999993 269.8299999999998 803.8599999999993 265.5799999999998 808.3799999999993 C 263.2699999999998 810.8299999999994 263.1699999999998 814.9299999999993 265.4799999999998 817.4399999999993 C 269.4799999999998 821.7799999999993 275.3099999999998 823.7899999999993 280.93999999999977 824.6999999999992 C 289.5999999999998 826.0899999999992 298.8599999999998 825.5399999999993 306.9199999999998 821.8099999999993 C 310.4699999999998 820.1599999999993 314.4799999999998 817.5499999999993 314.7499999999998 813.3099999999993 C 315.00999999999976 809.3499999999992 311.3699999999998 806.4199999999993 308.13999999999976 804.7399999999992 C 300.16999999999973 800.5899999999992 290.77999999999975 799.9599999999992 281.97999999999973 801.1099999999992 M 211.00999999999974 801.1099999999992 C 204.88999999999973 802.1799999999993 198.18999999999974 803.9099999999992 194.10999999999973 808.9599999999992 C 192.12999999999974 811.4099999999993 192.32999999999973 815.1499999999993 194.43999999999974 817.4799999999992 C 198.57999999999973 822.0599999999993 204.82999999999976 823.9799999999992 210.73999999999975 824.8299999999992 C 219.86999999999975 826.1399999999992 229.72999999999976 825.3499999999992 237.91999999999976 820.7499999999992 C 240.95999999999975 819.0399999999992 244.13999999999976 816.1199999999992 243.70999999999975 812.3899999999992 C 243.22999999999976 808.2899999999992 239.32999999999976 805.6999999999991 235.83999999999975 804.0999999999992 C 228.12999999999974 800.5799999999992 219.32999999999976 799.9799999999992 211.00999999999976 801.1099999999992 M 139.98999999999978 801.1099999999992 C 134.07999999999979 802.0799999999992 127.81999999999978 803.8699999999992 123.58999999999978 808.3999999999992 C 121.27999999999977 810.8699999999992 121.18999999999977 814.9199999999992 123.47999999999978 817.4399999999991 C 127.63999999999977 822.0099999999992 133.82999999999979 823.9799999999991 139.7299999999998 824.8199999999991 C 148.8599999999998 826.1199999999991 158.70999999999978 825.3399999999991 166.9199999999998 820.7499999999991 C 169.95999999999978 819.049999999999 173.1599999999998 816.0999999999991 172.7299999999998 812.3899999999991 C 172.2599999999998 808.2799999999991 168.3499999999998 805.689999999999 164.8399999999998 804.0899999999991 C 157.1199999999998 800.5699999999991 148.3199999999998 799.9799999999991 139.9899999999998 801.1099999999991 M 495.88999999999976 555.9099999999992 C 484.72999999999973 558.2799999999992 477.0499999999998 570.9299999999992 480.44999999999976 581.8499999999992 C 483.6099999999998 591.9999999999992 495.34999999999974 598.6499999999992 505.65999999999974 595.6099999999992 C 515.4999999999998 592.7099999999992 522.2999999999997 581.8299999999992 520.0199999999998 571.6999999999992 C 517.6699999999997 561.2299999999992 506.4999999999998 553.6599999999993 495.88999999999976 555.9099999999993 L 495.88999999999976 555.9099999999992 Z M 220.98999999999978 156.60999999999916 L 220.98999999999978 498.9099999999992 L 774.4899999999998 498.9099999999992 L 774.4899999999998 156.60999999999916 L 220.98999999999978 156.60999999999916 Z" style=""/>
</svg>