<?xml version="1.0" encoding="utf-8"?>
<svg viewBox="0 0 150 34" xmlns="http://www.w3.org/2000/svg" xmlns:bx="https://boxy-svg.com">
  <defs>
    <linearGradient gradientUnits="userSpaceOnUse" x1="75" y1="7.5" x2="75" y2="19.5" id="gradient-1" gradientTransform="matrix(1.000068, -0.000707, 0.008987, 1.263325, -0.072498, 4.078157)">
      <stop offset="0" style=""/>
      <stop offset="0.394" style="stop-color: rgb(68, 68, 68);"/>
      <stop offset="0.671" style="stop-color: rgb(119, 119, 119);"/>
      <stop offset="1" style=""/>
    </linearGradient>
    <linearGradient gradientUnits="userSpaceOnUse" x1="75" y1="7.5" x2="75" y2="19.5" id="gradient-2" gradientTransform="matrix(0.684978, -0.000707, 0.006155, 1.263325, 23.580481, -0.921843)">
      <stop offset="0" style=""/>
      <stop offset="0.394" style="stop-color: rgb(68, 68, 68);"/>
      <stop offset="0.671" style="stop-color: rgb(119, 119, 119);"/>
      <stop offset="1" style=""/>
    </linearGradient>
    <filter id="gaussian-blur-filter-0" color-interpolation-filters="sRGB" x="-50%" y="-50%" width="200%" height="200%" bx:preset="gaussian-blur 1 6.4">
      <feGaussianBlur stdDeviation="6.4 6.4" edgeMode="none"/>
    </filter>
  </defs>
  <g style="" transform="">
    <title>original</title>
    <rect x="14.623" y="7.125" width="119.54" height="15.261" style="filter: url('#gaussian-blur-filter-0'); fill: rgb(34, 34, 34);"/>
    <path style="fill: rgb(51, 51, 51); stroke-width: 2px;" d="M 75 26.82 C 83.284 26.82 90 21.935 90 15.91 L 90 8.896 C 90 6.745 87.761 5 85 5 L 65 5 C 62.239 5 60 6.745 60 8.896 L 60 15.91 C 60 21.935 66.716 26.82 75 26.82 Z"/>
    <path style="stroke-width: 2px; stroke: rgb(0, 0, 0); fill: url('#gradient-1'); filter: none;" d="M 50 13.5 L 100 13.5 C 102.419 13.5 104.437 15.261 104.9 17.6 L 144 17.6 C 146.209 17.6 148 19.435 148 21.698 L 148 27.847 L 2 27.847 L 2 21.698 C 2 19.435 3.791 17.6 6 17.6 L 45.1 17.6 C 45.563 15.261 47.581 13.5 50 13.5 Z"/>
    <path style="fill: rgb(216, 216, 216); stroke: rgb(0, 0, 255); stroke-opacity: 0.25; stroke-width: 2px; fill-opacity: 0.5;" d="M 1.5 28 L 148.5 28 L 148.5 30.5 C 148.499 31.881 147.313 33 145.85 33 L 4.15 33 C 2.687 33 1.501 31.881 1.5 30.5 L 1.5 28 Z"/>
    <path style="stroke-width: 2px; stroke: rgb(0, 0, 0); fill: url('#gradient-2'); opacity: 0.5; filter: none;" d="M 57.877 8.5 L 92.123 8.5 C 93.78 8.5 95.162 10.261 95.479 12.6 L 122.26 12.6 C 123.773 12.6 125 14.435 125 16.698 L 125 22.847 L 25 22.847 L 25 16.698 C 25 14.435 26.227 12.6 27.74 12.6 L 54.521 12.6 C 54.838 10.261 56.22 8.5 57.877 8.5 Z"/>
  </g>
</svg>