<?xml version="1.0" encoding="utf-8"?>
<svg viewBox="0 0 75 27" xmlns="http://www.w3.org/2000/svg" xmlns:bx="https://boxy-svg.com">
  <defs>
    <linearGradient gradientUnits="userSpaceOnUse" x1="75" y1="7.5" x2="75" y2="19.5" id="gradient-1" gradientTransform="matrix(0.496632, -0.000505, 0.004463, 0.902375, 0.2191, 4.341541)">
      <stop offset="0" style=""/>
      <stop offset="0.394" style="stop-color: rgb(68, 68, 68);"/>
      <stop offset="0.671" style="stop-color: rgb(119, 119, 119);"/>
      <stop offset="1" style=""/>
    </linearGradient>
    <linearGradient gradientUnits="userSpaceOnUse" x1="75" y1="7.5" x2="75" y2="19.5" id="gradient-2" gradientTransform="matrix(0.340159, -0.000505, 0.003057, 0.902375, 11.965136, 0.770112)">
      <stop offset="0" style=""/>
      <stop offset="0.394" style="stop-color: rgb(68, 68, 68);"/>
      <stop offset="0.671" style="stop-color: rgb(119, 119, 119);"/>
      <stop offset="1" style=""/>
    </linearGradient>
    <filter id="gaussian-blur-filter-0" color-interpolation-filters="sRGB" x="-50%" y="-50%" width="200%" height="200%" bx:preset="gaussian-blur 1 6.4">
      <feGaussianBlur stdDeviation="6.4 6.4" edgeMode="none"/>
    </filter>
  </defs>
  <g style="" transform="">
    <title>original</title>
    <rect x="7.517" y="6.518" width="59.363" height="10.901" style="filter: url('#gaussian-blur-filter-0'); fill: rgb(34, 34, 34);">
      <title>shadow</title>
    </rect>
    <path style="fill: rgb(51, 51, 51); stroke-width: 2px;" d="M 37.5 20.586 C 41.614 20.586 44.949 17.096 44.949 12.793 L 44.949 7.783 C 44.949 6.246 43.837 5 42.466 5 L 32.534 5 C 31.163 5 30.051 6.246 30.051 7.783 L 30.051 12.793 C 30.051 17.096 33.386 20.586 37.5 20.586 Z">
      <title>base</title>
    </path>
    <path style="stroke-width: 2px; stroke: rgb(0, 0, 0); fill: url('#gradient-1'); filter: none;" d="M 25.085 11.071 L 49.915 11.071 C 51.116 11.071 52.118 12.329 52.348 14 L 71.765 14 C 72.862 14 73.752 15.311 73.752 16.927 L 73.752 21.319 L 1.248 21.319 L 1.248 16.927 C 1.248 15.311 2.138 14 3.235 14 L 22.652 14 C 22.882 12.329 23.884 11.071 25.085 11.071 Z">
      <title>screen-case</title>
    </path>
    <path style="fill: rgb(216, 216, 216); stroke: rgb(0, 0, 255); stroke-opacity: 0.25; stroke-width: 2px; fill-opacity: 0.5;" d="M 1 21.429 L 74 21.429 L 74 23.214 C 74 24.201 73.411 25 72.684 25 L 2.316 25 C 1.589 25 1 24.201 1 23.214 L 1 21.429 Z">
      <title>screen</title>
    </path>
    <path style="stroke-width: 2px; stroke: rgb(0, 0, 0); fill: url('#gradient-2'); opacity: 0.5; filter: none;" d="M 28.997 7.5 L 46.003 7.5 C 46.826 7.5 47.512 8.758 47.67 10.429 L 60.969 10.429 C 61.721 10.429 62.33 11.739 62.33 13.356 L 62.33 17.748 L 12.67 17.748 L 12.67 13.356 C 12.67 11.739 13.279 10.429 14.031 10.429 L 27.33 10.429 C 27.488 8.758 28.174 7.5 28.997 7.5 Z">
      <title>computer</title>
    </path>
  </g>
</svg>