<?xml version="1.0" encoding="utf-8"?>
<svg viewBox="0 0 217.998 61.8006" xmlns="http://www.w3.org/2000/svg">
  <g fill="white" transform="matrix(1, 0, 0, 1, -11.045, -88.870872)">
    <title>lying-down</title>
    <path d="M 229.843 129.112 C 229.843 140.158 220.889 149.112 209.843 149.112 C 200.842 149.112 193.229 143.166 190.72 134.987 C 190.482 134.996 190.242 135 190 135 L 180 135 C 180 140.523 175.523 145 170 145 L 20.445 145 C 15.695 145 11.845 141.642 11.845 137.5 C 11.845 133.358 15.695 130 20.445 130 L 31.872 130 L 31.532 129.66 L 67.802 93.392 C 71.161 90.034 76.602 90.03 79.955 93.383 L 80.599 94.027 C 81.101 94.352 81.576 94.734 82.016 95.174 L 110 123.16 L 110 120 C 110 117.239 112.239 115 115 115 L 170 115 C 175.523 115 180 119.477 180 125 L 190 125 C 190.089 125 190.177 125.001 190.266 125.002 C 192.161 115.928 200.206 109.112 209.843 109.112 C 220.889 109.112 229.843 118.066 229.843 129.112 Z M 55.48 130 L 92.555 130 L 74.018 111.462 Z"/>
  </g>
</svg>