<?xml version="1.0" encoding="utf-8"?>
<svg filter="invert(1)" version="1.1" x="0px" y="0px" viewBox="0 0 30 23" xmlns="http://www.w3.org/2000/svg">
  <g fill="black">
    <title>original</title>
    <path d="M 15.268 1 C 16.306 1 17.155 1.847 17.155 2.884 C 17.155 3.922 16.306 4.768 15.268 4.768 C 14.228 4.768 13.379 3.922 13.379 2.884 C 13.38 1.846 14.229 1 15.268 1 Z M 16.634 12.804 L 15.72 5.721 C 16.668 5.542 17.465 5.064 18.002 4.05 C 20.462 4.415 23.529 4.768 23.529 4.768 L 25.098 9.069 L 23.617 9.958 L 28.5 22 L 26.888 22 L 23.321 14.659 L 21.69 16.955 L 21.69 21.999 L 20.162 21.999 L 19.77 16.79 L 20.63 14.277 L 19.801 11.981 L 12.228 16.106 L 12.714 17.24 L 15.028 17.877 L 16.513 22 L 1.5 22 L 3.258 19.513 L 5.372 17.917 L 8.06 13.025 L 9.451 12.041 L 10.555 12.2 L 11.911 15.367 L 16.634 12.804 Z"/>
  </g>
</svg>