<?xml version="1.0" encoding="utf-8"?>
<svg width="24" height="24" filter="invert(1)" viewBox="0 0 240 240" xmlns="http://www.w3.org/2000/svg">
  <g style="">
    <title>sitting-down</title>
    <path d="M 105 32.5 C 105 40.244 99.971 46.813 93 49.118 L 93 61.857 L 95.075 61.491 C 100.514 60.532 105.701 64.163 106.66 69.602 L 119.073 140 L 163.654 140 C 169.176 140 173.654 144.477 173.654 150 L 173.654 215 C 173.654 220.523 169.176 225 163.654 225 L 160.434 225 C 154.911 225 150.434 220.523 150.434 215 L 150.434 161.14 L 122.8 161.14 L 122.809 161.19 L 93.819 166.301 C 88.381 167.26 83.194 163.629 82.235 158.19 L 67.822 76.451 C 66.863 71.012 70.495 65.825 75.934 64.866 L 83 63.62 L 83 49.416 C 75.516 47.43 70 40.609 70 32.5 C 70 22.835 77.835 15 87.5 15 C 97.165 15 105 22.835 105 32.5 Z" style=""/>
  </g>
</svg>