<?xml version="1.0" encoding="utf-8"?>
<svg viewBox="0 0 80 210" filter="invert(1)" xmlns="http://www.w3.org/2000/svg">
  <g style="">
    <title>standing-man</title>
    <path style="" d="M 54.5 202.5 C 54.5 205.261 52.261 207.5 49.5 207.5 C 46.739 207.5 44.5 205.261 44.5 202.5 L 44.5 121.256 L 34.5 121.256 L 34.5 202.5 C 34.5 205.261 32.261 207.5 29.5 207.5 C 26.739 207.5 24.5 205.261 24.5 202.5 L 24.5 66.646 L 20.5 86.646 L 14.5 117.5 C 14.5 123.023 12.261 122.5 9.5 122.5 C 6.739 122.5 5.5 123.023 5.5 117.5 L 14.5 63.5 C 14.5 63.5 19.577 54.127 23.783 54.127 L 26.331 54.127 C 28.142 51.567 31.126 49.896 34.5 49.896 L 34.5 36.775 C 27.271 34.624 22 27.928 22 20 C 22 10.335 29.835 2.5 39.5 2.5 C 49.165 2.5 57 10.335 57 20 C 57 27.928 51.729 34.624 44.5 36.775 L 44.5 49.896 C 47.874 49.896 50.858 51.567 52.669 54.127 L 55.256 54.127 C 59.426 54.127 64.5 63.5 64.5 63.5 L 74.5 117.5 C 74.5 123.023 72.261 122.5 69.5 122.5 C 66.739 122.5 64.5 123.023 64.5 117.5 L 58.5 86.646 L 54.5 66.646 L 54.5 202.5 Z"/>
  </g>
</svg>